<?xml version="1.0" encoding="UTF-8" standalone="no"?><!DOCTYPE svg PUBLIC "-//W3C//DTD SVG 1.1//EN" "http://www.w3.org/Graphics/SVG/1.1/DTD/svg11.dtd"><svg width="100%" height="100%" viewBox="0 0 1533 631" version="1.1" xmlns="http://www.w3.org/2000/svg" xmlns:xlink="http://www.w3.org/1999/xlink" xml:space="preserve" xmlns:serif="http://www.serif.com/" style="fill-rule:evenodd;clip-rule:evenodd;stroke-linejoin:round;stroke-miterlimit:2;"><rect id="Artboard1" x="0" y="0" width="1533.69" height="631.246" style="fill:none;"/><path d="M511.533,228.211l-0,190c-0,52.432 -42.568,95 -95,95l-190,-0c-52.432,-0 -95,-42.568 -95,-95l-0,-190c-0,-52.432 42.568,-95 95,-95l190,-0c52.432,-0 95,42.568 95,95Z" style="fill:#fff;"/><path d="M511.533,228.211l-0,190c-0,52.432 -42.568,95 -95,95l-190,-0c-52.432,-0 -95,-42.568 -95,-95l-0,-190c-0,-52.432 42.568,-95 95,-95l190,-0c52.432,-0 95,42.568 95,95Zm-40,-0c-0,-30.356 -24.645,-55 -55,-55l-190,-0c-30.356,-0 -55,24.644 -55,55l-0,190c-0,30.355 24.644,55 55,55l190,-0c30.355,-0 55,-24.645 55,-55l-0,-190Z" style="fill:#515151;"/><path d="M367.273,192.146l-0,117.87c-0,32.527 -26.408,58.935 -58.935,58.935l-117.87,-0c-32.527,-0 -58.935,-26.408 -58.935,-58.935l-0,-117.87c-0,-32.527 26.408,-58.935 58.935,-58.935l117.87,-0c32.527,-0 58.935,26.408 58.935,58.935Zm-40,-0c-0,-10.451 -8.485,-18.935 -18.935,-18.935l-117.87,-0c-10.451,-0 -18.935,8.484 -18.935,18.935l-0,117.87c-0,10.45 8.484,18.935 18.935,18.935l117.87,-0c10.45,-0 18.935,-8.485 18.935,-18.935l-0,-117.87Z" style="fill:#0090ff;"/><path d="M249.403,162.678l-0,58.935c-0,16.264 -13.204,29.468 -29.468,29.468l-58.935,-0c-16.263,-0 -29.467,-13.204 -29.467,-29.468l-0,-58.935c-0,-16.263 13.204,-29.467 29.467,-29.467l58.935,-0c16.264,-0 29.468,13.204 29.468,29.467Z" style="fill:#515151;"/><path d="M249.403,162.678l-0,58.935c-0,16.264 -13.204,29.468 -29.468,29.468l-58.935,-0c-16.263,-0 -29.467,-13.204 -29.467,-29.468l-0,-58.935c-0,-16.263 13.204,-29.467 29.467,-29.467l58.935,-0c16.264,-0 29.468,13.204 29.468,29.467Zm-20,0c-0,-5.225 -4.243,-9.467 -9.468,-9.467l-58.935,-0c-5.225,-0 -9.467,4.242 -9.467,9.467l-0,58.935c-0,5.225 4.242,9.468 9.467,9.468l58.935,-0c5.225,-0 9.468,-4.243 9.468,-9.468l-0,-58.935Z" style="fill:#515151;"/><g transform="matrix(208.764,0,0,208.764,1420.66,402.722)"></g><text x="575.998px" y="402.722px" style="font-family:'Korolev-Bold', 'Korolev';font-weight:700;font-size:208.764px;fill:#515151;">M<tspan x="715.87px 814.824px 901.044px 995.822px 1103.55px 1152.19px 1260.54px 1309.18px " y="402.722px 402.722px 402.722px 402.722px 402.722px 402.722px 402.722px 402.722px ">ATERIAIS</tspan></text></svg>