<?xml version="1.0" encoding="UTF-8" standalone="no"?><!DOCTYPE svg PUBLIC "-//W3C//DTD SVG 1.1//EN" "http://www.w3.org/Graphics/SVG/1.1/DTD/svg11.dtd"><svg width="100%" height="100%" viewBox="0 0 257 72" version="1.1" xmlns="http://www.w3.org/2000/svg" xmlns:xlink="http://www.w3.org/1999/xlink" xml:space="preserve" xmlns:serif="http://www.serif.com/" style="fill-rule:evenodd;clip-rule:evenodd;stroke-linecap:round;stroke-linejoin:round;stroke-miterlimit:1.5;"><g><g><path d="M4.584,66.701c0,-0 0.264,-13.715 16.865,-13.715l42.625,0c-0,0 -5.989,15.779 -21.74,15.711c-22.9,-0.098 -37.75,-1.996 -37.75,-1.996Z" style="fill:#cecece;"/><path d="M4.584,66.701c0,-0 0.264,-13.715 16.865,-13.715l42.625,0c-0,0 -5.989,15.779 -21.74,15.711c-22.9,-0.098 -37.75,-1.996 -37.75,-1.996Zm3.528,-2.632c5.47,0.547 17.745,1.558 34.235,1.628c8.811,0.038 14.102,-5.634 16.764,-9.711l-37.662,0c-5.501,0 -8.885,1.686 -10.908,3.867c-1.291,1.393 -2.019,2.94 -2.429,4.216Z" style="fill:#4a4a4a;"/><path d="M6.621,55.462c0,0 0.264,-13.714 16.865,-13.714l42.625,-0c-0,-0 -5.989,15.778 -21.74,15.711c-22.9,-0.098 -37.75,-1.997 -37.75,-1.997Z" style="fill:#cecece;"/><path d="M6.621,55.462c0,0 0.264,-13.714 16.865,-13.714l42.625,-0c-0,-0 -5.989,15.778 -21.74,15.711c-22.9,-0.098 -37.75,-1.997 -37.75,-1.997Zm3.527,-2.631c5.47,0.546 17.745,1.557 34.236,1.628c8.811,0.038 14.102,-5.635 16.764,-9.711l-37.662,-0c-5.502,-0 -8.886,1.685 -10.908,3.867c-1.291,1.392 -2.019,2.94 -2.43,4.216Z" style="fill:#4a4a4a;"/><path d="M9.275,44.487c-0,-0 0.284,-13.715 18.173,-13.715l45.932,0c0,0 -6.453,15.779 -23.426,15.711c-24.677,-0.098 -40.679,-1.996 -40.679,-1.996Z" style="fill:#9e5e01;"/><path d="M9.275,44.487c-0,-0 0.284,-13.715 18.173,-13.715l45.932,0c0,0 -6.453,15.779 -23.426,15.711c-24.677,-0.098 -40.679,-1.996 -40.679,-1.996Zm3.59,-2.649c5.821,0.543 19.145,1.574 37.1,1.645c9.549,0.038 15.318,-5.617 18.241,-9.711l-40.758,0c-6.057,0 -9.776,1.719 -12.003,3.948c-1.358,1.36 -2.136,2.866 -2.58,4.118Z" style="fill:#503600;"/><rect x="2.034" y="24.93" width="42.028" height="42.028" style="fill:#cecece;"/><path d="M59.021,24.09c0,-0 -2.757,10.249 5.723,6.825c8.48,-3.423 17.777,-7.176 17.777,-7.176c-0,-0 -7.576,-7.697 -19.468,-3.529c-11.891,4.168 -4.032,3.88 -4.032,3.88Z" style="fill:#9e5e01;"/><path d="M59.021,24.09c0,-0 -7.859,0.288 4.032,-3.88c11.892,-4.168 19.468,3.529 19.468,3.529l-17.777,7.176c-8.48,3.424 -5.723,-6.825 -5.723,-6.825Zm2.987,-0.28c0.033,0.351 0.004,0.71 -0.09,1.059c0,0 -0.335,1.252 -0.324,2.586c0.002,0.33 0.109,0.858 0.169,1.128c0.348,-0.044 1.166,-0.17 1.858,-0.45c-0,0 12.358,-4.988 12.359,-4.988c-2.841,-1.144 -6.936,-1.856 -11.934,-0.104c-0.734,0.257 -1.42,0.519 -2.038,0.769Z" style="fill:#503600;"/><rect x="2.034" y="24.93" width="42.028" height="42.028" style="fill:none;stroke:#4a4a4a;stroke-width:3px;"/><path d="M29.321,40.768c-0,-0 -3.962,-14.278 10.67,-20.797c25.522,-11.371 39.781,-14.752 39.781,-14.752c0,-0 -3.968,23.772 -25.651,29.671c-21.683,5.898 -24.8,5.878 -24.8,5.878Z" style="fill:#9e5e01;"/><path d="M29.321,40.768c-0,-0 -3.962,-14.278 10.67,-20.797c25.522,-11.371 39.781,-14.752 39.781,-14.752c0,-0 -3.968,23.772 -25.651,29.671c-21.683,5.898 -24.8,5.878 -24.8,5.878Zm2.534,-3.464c3.167,-0.632 9.605,-2.079 21.478,-5.309c13.967,-3.8 19.896,-15.706 22.189,-22.462c-6.139,1.872 -17.85,5.845 -34.31,13.178c-8.557,3.812 -9.534,10.782 -9.357,14.593Z" style="fill:#503600;"/><path d="M34.035,39.622c0,-0 -7.061,-12.841 4.041,-21.117c19.367,-14.438 32.062,-17.749 32.062,-17.749c0,-0 0.659,19.628 -16.422,28.922c-17.08,9.294 -19.681,9.944 -19.681,9.944Z" style="fill:#9e5e01;"/><path d="M34.035,39.622c0,-0 -7.061,-12.841 4.041,-21.117c19.367,-14.438 32.062,-17.749 32.062,-17.749c0,-0 0.659,19.628 -16.422,28.922c-17.08,9.294 -19.681,9.944 -19.681,9.944Zm1.588,-3.958c2.629,-1.233 7.699,-3.746 16.66,-8.621c10.713,-5.83 13.713,-16.152 14.545,-21.943c-5.075,2.043 -14.61,6.604 -26.958,15.81c-6.313,4.705 -5.391,11.225 -4.247,14.754Z" style="fill:#503600;"/><path d="M34.311,29.191l10.478,-0l-0,-6.147l-10.478,6.147Z" style="fill:#4a4a4a;"/><path d="M18.088,48.574l2.145,-10.723c-0,-0 4.179,-5.884 9.788,-6.819c5.609,-0.934 10.942,-1.154 10.942,-1.154l2.64,0.33l-0.825,12.35c-0,-0 -1.98,-0.198 -8.413,0.737c-6.434,0.934 -10.943,2.649 -10.943,2.649l-5.334,2.63Z" style="fill:#fff;"/><path d="M44.783,44.817c-0.986,-0.017 -3.734,-0.032 -10.604,-0.032c-14.56,-0 -16.554,10.474 -17.091,7.515c-4.479,-24.684 19.965,-23.586 19.965,-23.586l7.659,0.035l0.071,16.068Zm0,-0c1.104,0.018 0,0.037 0,0.037l0,-0.037Zm-3.013,-3.02l-0.045,-10.061l-4.686,-0.022c-0.04,0 -0.081,-0.001 -0.121,-0.003c0,0 -10.23,-0.596 -15.028,6.319c-1.443,2.08 -2.33,4.83 -2.352,8.444c2.985,-2.28 7.766,-4.689 14.641,-4.689c3.456,-0 5.89,0.005 7.591,0.012Z" style="fill:#4a4a4a;"/></g><g transform="matrix(0.999992,0.00400033,-0.00400033,0.999992,-9.32934,6.00859)"><g transform="matrix(60.6059,0,0,60.6059,267.949,53.1055)"></g><text x="98.858px" y="53.106px" style="font-family:'CocoSharpTrial-Regular', 'CocoSharp Trial';font-size:60.606px;fill:#78582d;stroke:#78582d;stroke-width:1px;stroke-linecap:butt;stroke-miterlimit:2;">g<tspan x="145.888px 179.373px 203.161px 230.221px " y="53.106px 53.106px 53.106px 53.106px ">rifo</tspan></text></g><path d="M119.541,63.861l136.838,-0" style="fill:none;"/></g></svg>