<?xml version="1.0" encoding="UTF-8" standalone="no"?><!DOCTYPE svg PUBLIC "-//W3C//DTD SVG 1.1//EN" "http://www.w3.org/Graphics/SVG/1.1/DTD/svg11.dtd"><svg width="100%" height="100%" viewBox="0 0 257 72" version="1.1" xmlns="http://www.w3.org/2000/svg" xmlns:xlink="http://www.w3.org/1999/xlink" xml:space="preserve" xmlns:serif="http://www.serif.com/" style="fill-rule:evenodd;clip-rule:evenodd;stroke-linecap:round;stroke-linejoin:round;stroke-miterlimit:1.5;"><g><g><path d="M4.584,66.701c0,-0 0.264,-13.715 16.865,-13.715l42.625,0c-0,0 -5.989,15.779 -21.74,15.711c-22.9,-0.098 -37.75,-1.996 -37.75,-1.996Z" style="fill:#cecece;"/><path d="M4.584,66.701c0,-0 0.264,-13.715 16.865,-13.715l42.625,0c-0,0 -5.989,15.779 -21.74,15.711c-22.9,-0.098 -37.75,-1.996 -37.75,-1.996Zm3.528,-2.632c5.47,0.547 17.745,1.558 34.235,1.628c8.811,0.038 14.102,-5.634 16.764,-9.711l-37.662,0c-5.501,0 -8.885,1.686 -10.908,3.867c-1.291,1.393 -2.019,2.94 -2.429,4.216Z" style="fill:#4a4a4a;"/><path d="M6.621,55.462c0,0 0.264,-13.714 16.865,-13.714l42.625,-0c-0,-0 -5.989,15.778 -21.74,15.711c-22.9,-0.098 -37.75,-1.997 -37.75,-1.997Z" style="fill:#cecece;"/><path d="M6.621,55.462c0,0 0.264,-13.714 16.865,-13.714l42.625,-0c-0,-0 -5.989,15.778 -21.74,15.711c-22.9,-0.098 -37.75,-1.997 -37.75,-1.997Zm3.527,-2.631c5.47,0.546 17.745,1.557 34.236,1.628c8.811,0.038 14.102,-5.635 16.764,-9.711l-37.662,-0c-5.502,-0 -8.886,1.685 -10.908,3.867c-1.291,1.392 -2.019,2.94 -2.43,4.216Z" style="fill:#4a4a4a;"/><path d="M9.275,44.487c-0,-0 0.284,-13.715 18.173,-13.715l45.932,0c0,0 -6.453,15.779 -23.426,15.711c-24.677,-0.098 -40.679,-1.996 -40.679,-1.996Z" style="fill:#9e5e01;"/><path d="M9.275,44.487c-0,-0 0.284,-13.715 18.173,-13.715l45.932,0c0,0 -6.453,15.779 -23.426,15.711c-24.677,-0.098 -40.679,-1.996 -40.679,-1.996Zm3.59,-2.649c5.821,0.543 19.145,1.574 37.1,1.645c9.549,0.038 15.318,-5.617 18.241,-9.711l-40.758,0c-6.057,0 -9.776,1.719 -12.003,3.948c-1.358,1.36 -2.136,2.866 -2.58,4.118Z" style="fill:#503600;"/><rect x="2.034" y="24.93" width="42.028" height="42.028" style="fill:#cecece;"/><path d="M59.021,24.09c0,-0 -2.757,10.249 5.723,6.825c8.48,-3.423 17.777,-7.176 17.777,-7.176c-0,-0 -7.576,-7.697 -19.468,-3.529c-11.891,4.168 -4.032,3.88 -4.032,3.88Z" style="fill:#9e5e01;"/><path d="M59.021,24.09c0,-0 -7.859,0.288 4.032,-3.88c11.892,-4.168 19.468,3.529 19.468,3.529l-17.777,7.176c-8.48,3.424 -5.723,-6.825 -5.723,-6.825Zm2.987,-0.28c0.033,0.351 0.004,0.71 -0.09,1.059c0,0 -0.335,1.252 -0.324,2.586c0.002,0.33 0.109,0.858 0.169,1.128c0.348,-0.044 1.166,-0.17 1.858,-0.45c-0,0 12.358,-4.988 12.359,-4.988c-2.841,-1.144 -6.936,-1.856 -11.934,-0.104c-0.734,0.257 -1.42,0.519 -2.038,0.769Z" style="fill:#503600;"/><rect x="2.034" y="24.93" width="42.028" height="42.028" style="fill:none;stroke:#4a4a4a;stroke-width:3px;"/><path d="M29.321,40.768c-0,-0 -3.962,-14.278 10.67,-20.797c25.522,-11.371 39.781,-14.752 39.781,-14.752c0,-0 -3.968,23.772 -25.651,29.671c-21.683,5.898 -24.8,5.878 -24.8,5.878Z" style="fill:#9e5e01;"/><path d="M29.321,40.768c-0,-0 -3.962,-14.278 10.67,-20.797c25.522,-11.371 39.781,-14.752 39.781,-14.752c0,-0 -3.968,23.772 -25.651,29.671c-21.683,5.898 -24.8,5.878 -24.8,5.878Zm2.534,-3.464c3.167,-0.632 9.605,-2.079 21.478,-5.309c13.967,-3.8 19.896,-15.706 22.189,-22.462c-6.139,1.872 -17.85,5.845 -34.31,13.178c-8.557,3.812 -9.534,10.782 -9.357,14.593Z" style="fill:#503600;"/><path d="M34.035,39.622c0,-0 -7.061,-12.841 4.041,-21.117c19.367,-14.438 32.062,-17.749 32.062,-17.749c0,-0 0.659,19.628 -16.422,28.922c-17.08,9.294 -19.681,9.944 -19.681,9.944Z" style="fill:#9e5e01;"/><path d="M34.035,39.622c0,-0 -7.061,-12.841 4.041,-21.117c19.367,-14.438 32.062,-17.749 32.062,-17.749c0,-0 0.659,19.628 -16.422,28.922c-17.08,9.294 -19.681,9.944 -19.681,9.944Zm1.588,-3.958c2.629,-1.233 7.699,-3.746 16.66,-8.621c10.713,-5.83 13.713,-16.152 14.545,-21.943c-5.075,2.043 -14.61,6.604 -26.958,15.81c-6.313,4.705 -5.391,11.225 -4.247,14.754Z" style="fill:#503600;"/><path d="M34.311,29.191l9.494,-0l0,-6.147l-9.494,6.147Z" style="fill:#fff;stroke:#4a4a4a;stroke-width:2px;"/><path d="M18.088,48.574l2.145,-10.723c-0,-0 4.179,-5.884 9.788,-6.819c5.609,-0.934 10.942,-1.154 10.942,-1.154l2.64,0.33l-0.825,12.35c-0,-0 -1.98,-0.198 -8.413,0.737c-6.434,0.934 -10.943,2.649 -10.943,2.649l-5.334,2.63Z" style="fill:#fff;"/><path d="M44.783,44.817c-0.986,-0.017 -3.734,-0.032 -10.604,-0.032c-14.56,-0 -16.554,10.474 -17.091,7.515c-4.479,-24.684 19.965,-23.586 19.965,-23.586l7.659,0.035l0.071,16.068Zm0,-0c1.104,0.018 0,0.037 0,0.037l0,-0.037Zm-3.013,-3.02l-0.045,-10.061l-4.686,-0.022c-0.04,0 -0.081,-0.001 -0.121,-0.003c0,0 -10.23,-0.596 -15.028,6.319c-1.443,2.08 -2.33,4.83 -2.352,8.444c2.985,-2.28 7.766,-4.689 14.641,-4.689c3.456,-0 5.89,0.005 7.591,0.012Z" style="fill:#4a4a4a;"/></g><g><path d="M117.774,28.229l4.606,0.018l-0.107,26.909c-0.012,2.849 -0.568,5.473 -1.668,7.872c-1.081,2.42 -2.806,4.363 -5.175,5.828c-2.35,1.486 -5.312,2.221 -8.888,2.207c-2.242,-0.009 -4.463,-0.291 -6.663,-0.845c-2.2,-0.534 -4.056,-1.218 -5.568,-2.052l1.804,-3.933c1.431,0.754 3.015,1.336 4.751,1.747c1.755,0.431 3.532,0.65 5.33,0.657c2.768,0.011 5.003,-0.566 6.704,-1.73c1.702,-1.165 2.91,-2.635 3.624,-4.41c0.714,-1.775 1.075,-3.652 1.083,-5.632l0.006,-1.576c-1.218,1.652 -2.729,2.949 -4.53,3.891c-1.802,0.922 -3.854,1.379 -6.157,1.369c-2.808,-0.011 -5.331,-0.698 -7.568,-2.06c-2.237,-1.363 -3.987,-3.228 -5.25,-5.597c-1.264,-2.389 -1.889,-5.028 -1.878,-7.917c0.011,-2.767 0.658,-5.341 1.94,-7.719c1.282,-2.379 3.048,-4.271 5.296,-5.676c2.268,-1.405 4.796,-2.102 7.584,-2.091c2.303,0.009 4.351,0.533 6.145,1.57c1.814,1.017 3.334,2.407 4.559,4.17l0.02,-5Zm-10.497,25.776c2.061,0.008 3.901,-0.449 5.521,-1.372c1.62,-0.922 2.877,-2.2 3.773,-3.833c0.895,-1.633 1.347,-3.469 1.355,-5.51c0.008,-2.081 -0.439,-3.971 -1.341,-5.672c-0.882,-1.721 -2.129,-3.079 -3.741,-4.075c-1.612,-0.997 -3.449,-1.499 -5.509,-1.507c-2.041,-0.009 -3.851,0.479 -5.43,1.463c-1.58,0.963 -2.808,2.281 -3.683,3.955c-0.855,1.673 -1.287,3.51 -1.295,5.51c-0.008,2.121 0.408,4.022 1.25,5.702c0.862,1.66 2.079,2.968 3.651,3.923c1.572,0.936 3.389,1.408 5.449,1.416Z" style="fill:#78582d;fill-rule:nonzero;stroke:#78582d;stroke-width:1px;stroke-linecap:butt;stroke-miterlimit:2;"/><path d="M154.716,27.71c2.323,0.009 4.633,0.796 6.93,2.361l-2.106,3.81c-0.846,-0.589 -1.734,-1.027 -2.662,-1.314c-0.928,-0.307 -1.826,-0.452 -2.695,-0.435c-1.333,0.015 -2.598,0.454 -3.793,1.318c-1.196,0.864 -2.18,2.072 -2.954,3.625c-0.774,1.552 -1.215,3.308 -1.324,5.267l-0.07,17.394l-4.697,-0.019l0.126,-31.393l4.485,0.018l-0.019,4.666c0.895,-1.633 2.113,-2.921 3.652,-3.864c1.539,-0.963 3.248,-1.442 5.127,-1.434Z" style="fill:#78582d;fill-rule:nonzero;stroke:#78582d;stroke-width:1px;stroke-linecap:butt;stroke-miterlimit:2;"/><path d="M177.287,21.285c-0.929,-0.004 -1.706,-0.32 -2.329,-0.949c-0.624,-0.628 -0.934,-1.367 -0.931,-2.215c0.003,-0.849 0.32,-1.595 0.948,-2.239c0.629,-0.644 1.408,-0.964 2.338,-0.96c0.949,0.003 1.736,0.33 2.359,0.979c0.644,0.649 0.964,1.397 0.961,2.246c-0.003,0.848 -0.33,1.585 -0.978,2.208c-0.629,0.624 -1.418,0.934 -2.368,0.93Zm2.24,38.585l-4.697,-0.019l0.125,-31.393l4.697,0.018l-0.125,31.394Z" style="fill:#78582d;fill-rule:nonzero;stroke:#78582d;stroke-width:1px;stroke-linecap:butt;stroke-miterlimit:2;"/><path d="M199.284,59.949l0.108,-27.03l-4.666,-0.019l0.017,-4.363l4.667,0.018l0.017,-4.363c0.014,-3.394 0.913,-5.936 2.697,-7.626c1.785,-1.69 4.384,-2.528 7.798,-2.514l2.091,0.039l-0.017,4.363c-0.485,-0.022 -1.142,-0.035 -1.97,-0.038c-3.919,-0.016 -5.887,2.098 -5.904,6.34l-0.015,3.818l7.575,0.031l-0.017,4.363l-7.576,-0.03l-0.108,27.03l-4.697,-0.019Z" style="fill:#78582d;fill-rule:nonzero;stroke:#78582d;stroke-width:1px;stroke-linecap:butt;stroke-miterlimit:2;"/><path d="M239.523,60.928c-2.929,-0.011 -5.613,-0.75 -8.052,-2.214c-2.439,-1.464 -4.37,-3.452 -5.794,-5.962c-1.404,-2.511 -2.1,-5.271 -2.088,-8.282c0.012,-3.03 0.73,-5.795 2.154,-8.294c1.444,-2.519 3.392,-4.502 5.842,-5.946c2.47,-1.465 5.17,-2.192 8.1,-2.18c2.929,0.012 5.613,0.76 8.051,2.244c2.459,1.465 4.391,3.462 5.795,5.993c1.424,2.511 2.13,5.281 2.118,8.312c-0.012,3.01 -0.74,5.764 -2.185,8.264c-1.444,2.499 -3.401,4.471 -5.872,5.916c-2.45,1.444 -5.14,2.161 -8.069,2.149Zm0.078,-4.484c2.061,0.008 3.952,-0.51 5.673,-1.553c1.742,-1.044 3.121,-2.473 4.139,-4.287c1.017,-1.814 1.53,-3.832 1.539,-6.054c0.009,-2.202 -0.488,-4.214 -1.491,-6.037c-1.003,-1.842 -2.371,-3.292 -4.104,-4.349c-1.713,-1.078 -3.599,-1.621 -5.66,-1.629c-2.081,-0.008 -3.992,0.509 -5.734,1.553c-1.741,1.043 -3.121,2.482 -4.138,4.316c-1.017,1.815 -1.531,3.833 -1.539,6.055c-0.009,2.222 0.488,4.244 1.491,6.067c1.002,1.822 2.37,3.262 4.103,4.319c1.734,1.057 3.641,1.59 5.721,1.599Z" style="fill:#78582d;fill-rule:nonzero;stroke:#78582d;stroke-width:1px;stroke-linecap:butt;stroke-miterlimit:2;"/></g><path d="M119.541,63.861l136.838,-0" style="fill:none;"/></g></svg>